<svg width="80" height="16" viewBox="0 0 80 16" fill="none" xmlns="http://www.w3.org/2000/svg">
<path d="M7.85927 16C12.1678 16 14.3762 13.1421 14.9608 10.7821L12.1678 9.93775C11.7564 11.3667 10.479 13.0771 7.85927 13.0771C5.39107 13.0771 3.09608 11.2801 3.09608 8.01083C3.09608 4.52503 5.52097 2.87957 7.81597 2.87957C10.479 2.87957 11.6698 4.50338 12.0379 5.97564L14.8525 5.08796C14.2463 2.59811 12.0595 0 7.81597 0C3.7023 0 0 3.11773 0 8.01083C0 12.9039 3.57239 16 7.85927 16Z" fill="white"/>
<path d="M23.7757 15.6752H26.5254C26.4821 15.3072 26.4171 14.571 26.4171 13.7483V5.023H23.5376V11.2152C23.5376 12.4493 22.8014 13.3153 21.524 13.3153C20.1817 13.3153 19.5754 12.3627 19.5754 11.1719V5.023H16.6959V11.7564C16.6959 14.0731 18.1681 15.9567 20.7446 15.9567C21.8704 15.9567 23.1045 15.5237 23.6891 14.5277C23.6891 14.9608 23.7324 15.4587 23.7757 15.6752Z" fill="white"/>
<path d="M35.9855 4.9797C35.7689 4.95805 35.5524 4.9364 35.3143 4.9364C34.4049 4.9364 32.9327 5.19621 32.2832 6.60352V5.023H29.4902V15.6752H32.3698V10.8038C32.3698 8.5088 33.6472 7.79432 35.1194 7.79432C35.3792 7.79432 35.6607 7.81597 35.9855 7.88092V4.9797Z" fill="white"/>
<path d="M37.4249 12.774C37.4249 14.4411 38.8106 15.9784 41.0839 15.9784C42.6644 15.9784 43.682 15.2422 44.2233 14.3978C44.2233 14.8092 44.2666 15.3938 44.3315 15.6752H46.9729C46.908 15.3072 46.843 14.5494 46.843 13.9865V8.74695C46.843 6.60352 45.5873 4.69824 42.2097 4.69824C39.3518 4.69824 37.8146 6.53857 37.6414 8.20568L40.1962 8.74695C40.2828 7.81597 40.9756 7.01489 42.2314 7.01489C43.4438 7.01489 44.0284 7.64276 44.0284 8.40054C44.0284 8.76861 43.8336 9.07172 43.2273 9.15832L40.6076 9.54804C38.8322 9.80785 37.4249 10.8687 37.4249 12.774ZM41.6901 13.8349C40.7591 13.8349 40.3045 13.2287 40.3045 12.6008C40.3045 11.7781 40.889 11.3667 41.6252 11.2585L44.0284 10.8904V11.3667C44.0284 13.2503 42.9026 13.8349 41.6901 13.8349Z" fill="white"/>
<path d="M53.2329 1.84032H50.6348V3.33423C50.6348 4.28687 50.1152 5.023 48.9893 5.023H48.4481V7.57781H50.375V12.5359C50.375 14.5927 51.6741 15.8268 53.7525 15.8268C54.5969 15.8268 55.1165 15.6752 55.3764 15.567V13.1854C55.2248 13.2287 54.8351 13.272 54.4887 13.272C53.6659 13.272 53.2329 12.9689 53.2329 12.0379V7.57781H55.3764V5.023H53.2329V1.84032Z" fill="white"/>
<path d="M59.8168 9.13667C59.8818 8.16238 60.7045 7.03654 62.1984 7.03654C63.8439 7.03654 64.5367 8.07578 64.58 9.13667H59.8168ZM64.8615 11.908C64.5151 12.8606 63.7789 13.5318 62.4366 13.5318C61.0076 13.5318 59.8168 12.5142 59.7519 11.1069H67.373C67.373 11.0636 67.4163 10.6306 67.4163 10.2192C67.4163 6.79838 65.446 4.69824 62.1551 4.69824C59.4271 4.69824 56.9156 6.90663 56.9156 10.3058C56.9156 13.8999 59.4921 16 62.4149 16C65.0347 16 66.7234 14.4628 67.2647 12.6225L64.8615 11.908Z" fill="white"/>
<path d="M79.8381 0H77.0019V6.0839C76.6987 5.52097 75.8327 4.76319 73.9924 4.76319C70.9829 4.76319 68.8828 7.20974 68.8828 10.3275C68.8828 13.5535 71.0479 15.935 74.079 15.935C75.508 15.935 76.5905 15.2855 77.0668 14.4411C77.0668 14.9391 77.1318 15.4587 77.1751 15.6752H79.9247C79.8814 15.2422 79.8381 14.4628 79.8381 13.7483V0ZM71.784 10.3275C71.784 8.42219 72.9531 7.33965 74.4254 7.33965C75.8977 7.33965 77.0452 8.40054 77.0452 10.3058C77.0452 12.2327 75.8977 13.3586 74.4254 13.3586C72.9099 13.3586 71.784 12.2327 71.784 10.3275Z" fill="white"/>
</svg>
