<svg width="128" height="16" viewBox="0 0 128 16" fill="none" xmlns="http://www.w3.org/2000/svg">
<g clip-path="url(#clip0_304_987)">
<path d="M0.66925 0.538711C0.66925 0.764593 0.557709 0.877535 0.334625 0.877535C0.111542 0.877535 0 0.764593 0 0.538711C0 0.298711 0.111542 0.178711 0.334625 0.178711C0.557709 0.178711 0.66925 0.298711 0.66925 0.538711ZM0.66925 1.89401C0.66925 2.11989 0.557709 2.23283 0.334625 2.23283C0.111542 2.23283 0 2.11989 0 1.89401C0 1.66812 0.111542 1.55518 0.334625 1.55518C0.557709 1.55518 0.66925 1.66812 0.66925 1.89401ZM0.66925 3.27047C0.66925 3.49636 0.557709 3.6093 0.334625 3.6093C0.111542 3.6093 0 3.49636 0 3.27047C0 3.04459 0.111542 2.93165 0.334625 2.93165C0.557709 2.93165 0.66925 3.04459 0.66925 3.27047ZM0.66925 4.62577C0.66925 4.85165 0.557709 4.96459 0.334625 4.96459C0.111542 4.96459 0 4.85165 0 4.62577C0 4.39989 0.111542 4.28694 0.334625 4.28694C0.557709 4.28694 0.66925 4.39989 0.66925 4.62577ZM0.66925 6.00224C0.66925 6.22812 0.557709 6.34106 0.334625 6.34106C0.111542 6.34106 0 6.22812 0 6.00224C0 5.77636 0.111542 5.66341 0.334625 5.66341C0.557709 5.66341 0.66925 5.77636 0.66925 6.00224ZM0.66925 7.35753C0.66925 7.58342 0.557709 7.69636 0.334625 7.69636C0.111542 7.69636 0 7.58342 0 7.35753C0 7.13165 0.111542 7.01871 0.334625 7.01871C0.557709 7.01871 0.66925 7.13165 0.66925 7.35753ZM0.66925 8.734C0.66925 8.95989 0.557709 9.07283 0.334625 9.07283C0.111542 9.07283 0 8.95989 0 8.734C0 8.50812 0.111542 8.39518 0.334625 8.39518C0.557709 8.39518 0.66925 8.50812 0.66925 8.734ZM0.66925 10.0893C0.66925 10.3152 0.557709 10.4281 0.334625 10.4281C0.111542 10.4281 0 10.3152 0 10.0893C0 9.86342 0.111542 9.75047 0.334625 9.75047C0.557709 9.75047 0.66925 9.86342 0.66925 10.0893ZM0.66925 11.4658C0.66925 11.6917 0.557709 11.8046 0.334625 11.8046C0.111542 11.8046 0 11.6917 0 11.4658C0 11.2399 0.111542 11.1269 0.334625 11.1269C0.557709 11.1269 0.66925 11.2399 0.66925 11.4658ZM0.66925 12.8211C0.66925 13.0469 0.557709 13.1599 0.334625 13.1599C0.111542 13.1599 0 13.0469 0 12.8211C0 12.5952 0.111542 12.4822 0.334625 12.4822C0.557709 12.4822 0.66925 12.5952 0.66925 12.8211ZM0.66925 14.1975C0.66925 14.4234 0.557709 14.5364 0.334625 14.5364C0.111542 14.5364 0 14.4234 0 14.1975C0 13.9717 0.111542 13.8587 0.334625 13.8587C0.557709 13.8587 0.66925 13.9717 0.66925 14.1975ZM0.66925 15.5528C0.66925 15.7787 0.557709 15.8917 0.334625 15.8917C0.111542 15.8917 0 15.7787 0 15.5528C0 15.3269 0.111542 15.214 0.334625 15.214C0.557709 15.214 0.66925 15.3269 0.66925 15.5528Z" fill="white"/>
<path d="M12.1561 0.538711C12.1561 0.764593 12.0445 0.877535 11.8214 0.877535C11.5984 0.877535 11.4868 0.764593 11.4868 0.538711C11.4868 0.298711 11.5984 0.178711 11.8214 0.178711C12.0445 0.178711 12.1561 0.298711 12.1561 0.538711ZM12.1561 1.89401C12.1561 2.11989 12.0445 2.23283 11.8214 2.23283C11.5984 2.23283 11.4868 2.11989 11.4868 1.89401C11.4868 1.66812 11.5984 1.55518 11.8214 1.55518C12.0445 1.55518 12.1561 1.66812 12.1561 1.89401ZM12.1561 3.27047C12.1561 3.49636 12.0445 3.6093 11.8214 3.6093C11.5984 3.6093 11.4868 3.49636 11.4868 3.27047C11.4868 3.04459 11.5984 2.93165 11.8214 2.93165C12.0445 2.93165 12.1561 3.04459 12.1561 3.27047ZM12.1561 4.62577C12.1561 4.85165 12.0445 4.96459 11.8214 4.96459C11.5984 4.96459 11.4868 4.85165 11.4868 4.62577C11.4868 4.39989 11.5984 4.28694 11.8214 4.28694C12.0445 4.28694 12.1561 4.39989 12.1561 4.62577ZM12.1561 6.00224C12.1561 6.22812 12.0445 6.34106 11.8214 6.34106C11.5984 6.34106 11.4868 6.22812 11.4868 6.00224C11.4868 5.77636 11.5984 5.66341 11.8214 5.66341C12.0445 5.66341 12.1561 5.77636 12.1561 6.00224ZM12.1561 7.35753C12.1561 7.58342 12.0445 7.69636 11.8214 7.69636C11.5984 7.69636 11.4868 7.58342 11.4868 7.35753C11.4868 7.13165 11.5984 7.01871 11.8214 7.01871C12.0445 7.01871 12.1561 7.13165 12.1561 7.35753ZM5.5263 1.93636C5.5263 2.16224 5.40779 2.27518 5.17076 2.27518C4.94768 2.27518 4.83614 2.16224 4.83614 1.93636C4.83614 1.69636 4.94768 1.57636 5.17076 1.57636C5.40779 1.57636 5.5263 1.69636 5.5263 1.93636ZM4.06232 0.538711C4.06232 0.764593 3.95078 0.877535 3.72769 0.877535C3.50461 0.877535 3.39307 0.764593 3.39307 0.538711C3.39307 0.298711 3.50461 0.178711 3.72769 0.178711C3.95078 0.178711 4.06232 0.298711 4.06232 0.538711ZM12.1561 8.734C12.1561 8.95989 12.0445 9.07283 11.8214 9.07283C11.5984 9.07283 11.4868 8.95989 11.4868 8.734C11.4868 8.50812 11.5984 8.39518 11.8214 8.39518C12.0445 8.39518 12.1561 8.50812 12.1561 8.734ZM4.06232 1.89401C4.06232 2.11989 3.95078 2.23283 3.72769 2.23283C3.50461 2.23283 3.39307 2.11989 3.39307 1.89401C3.39307 1.66812 3.50461 1.55518 3.72769 1.55518C3.95078 1.55518 4.06232 1.66812 4.06232 1.89401ZM5.42173 3.27047C5.42173 3.49636 5.31019 3.6093 5.08711 3.6093C4.86402 3.6093 4.75248 3.49636 4.75248 3.27047C4.75248 3.04459 4.86402 2.93165 5.08711 2.93165C5.31019 2.93165 5.42173 3.04459 5.42173 3.27047ZM6.76023 4.62577C6.76023 4.85165 6.64869 4.96459 6.42561 4.96459C6.20252 4.96459 6.09098 4.85165 6.09098 4.62577C6.09098 4.39989 6.20252 4.28694 6.42561 4.28694C6.64869 4.28694 6.76023 4.39989 6.76023 4.62577ZM12.1561 10.0893C12.1561 10.3152 12.0445 10.4281 11.8214 10.4281C11.5984 10.4281 11.4868 10.3152 11.4868 10.0893C11.4868 9.86342 11.5984 9.75047 11.8214 9.75047C12.0445 9.75047 12.1561 9.86342 12.1561 10.0893ZM8.11965 7.35753C8.11965 7.58342 8.00811 7.69636 7.78502 7.69636C7.56194 7.69636 7.4504 7.58342 7.4504 7.35753C7.4504 7.13165 7.56194 7.01871 7.78502 7.01871C8.00811 7.01871 8.11965 7.13165 8.11965 7.35753ZM4.06232 3.27047C4.06232 3.49636 3.95078 3.6093 3.72769 3.6093C3.50461 3.6093 3.39307 3.49636 3.39307 3.27047C3.39307 3.04459 3.50461 2.93165 3.72769 2.93165C3.95078 2.93165 4.06232 3.04459 4.06232 3.27047ZM6.76023 6.00224C6.76023 6.22812 6.64869 6.34106 6.42561 6.34106C6.20252 6.34106 6.09098 6.22812 6.09098 6.00224C6.09098 5.77636 6.20252 5.66341 6.42561 5.66341C6.64869 5.66341 6.76023 5.77636 6.76023 6.00224ZM12.1561 11.4658C12.1561 11.6917 12.0445 11.8046 11.8214 11.8046C11.5984 11.8046 11.4868 11.6917 11.4868 11.4658C11.4868 11.2399 11.5984 11.1269 11.8214 11.1269C12.0445 11.1269 12.1561 11.2399 12.1561 11.4658ZM4.06232 4.62577C4.06232 4.85165 3.95078 4.96459 3.72769 4.96459C3.50461 4.96459 3.39307 4.85165 3.39307 4.62577C3.39307 4.39989 3.50461 4.28694 3.72769 4.28694C3.95078 4.28694 4.06232 4.39989 4.06232 4.62577ZM8.11965 8.734C8.11965 8.95989 8.00811 9.07283 7.78502 9.07283C7.56194 9.07283 7.4504 8.95989 7.4504 8.734C7.4504 8.50812 7.56194 8.39518 7.78502 8.39518C8.00811 8.39518 8.11965 8.50812 8.11965 8.734ZM9.45815 10.0893C9.45815 10.3152 9.34661 10.4281 9.12352 10.4281C8.90044 10.4281 8.7889 10.3152 8.7889 10.0893C8.7889 9.86342 8.90044 9.75047 9.12352 9.75047C9.34661 9.75047 9.45815 9.86342 9.45815 10.0893ZM12.1561 12.8211C12.1561 13.0469 12.0445 13.1599 11.8214 13.1599C11.5984 13.1599 11.4868 13.0469 11.4868 12.8211C11.4868 12.5952 11.5984 12.4822 11.8214 12.4822C12.0445 12.4822 12.1561 12.5952 12.1561 12.8211ZM10.8176 12.8211C10.8176 13.0469 10.706 13.1599 10.4829 13.1599C10.2599 13.1599 10.1483 13.0469 10.1483 12.8211C10.1483 12.5952 10.2599 12.4822 10.4829 12.4822C10.706 12.4822 10.8176 12.5952 10.8176 12.8211ZM4.06232 6.00224C4.06232 6.22812 3.95078 6.34106 3.72769 6.34106C3.50461 6.34106 3.39307 6.22812 3.39307 6.00224C3.39307 5.77636 3.50461 5.66341 3.72769 5.66341C3.95078 5.66341 4.06232 5.77636 4.06232 6.00224ZM9.45815 11.4658C9.45815 11.6917 9.34661 11.8046 9.12352 11.8046C8.90044 11.8046 8.7889 11.6917 8.7889 11.4658C8.7889 11.2399 8.90044 11.1269 9.12352 11.1269C9.34661 11.1269 9.45815 11.2399 9.45815 11.4658ZM12.1561 14.1975C12.1561 14.4234 12.0445 14.5364 11.8214 14.5364C11.5984 14.5364 11.4868 14.4234 11.4868 14.1975C11.4868 13.9717 11.5984 13.8587 11.8214 13.8587C12.0445 13.8587 12.1561 13.9717 12.1561 14.1975ZM4.06232 7.35753C4.06232 7.58342 3.95078 7.69636 3.72769 7.69636C3.50461 7.69636 3.39307 7.58342 3.39307 7.35753C3.39307 7.13165 3.50461 7.01871 3.72769 7.01871C3.95078 7.01871 4.06232 7.13165 4.06232 7.35753ZM10.8176 14.1975C10.8176 14.4234 10.706 14.5364 10.4829 14.5364C10.2599 14.5364 10.1483 14.4234 10.1483 14.1975C10.1483 13.9717 10.2599 13.8587 10.4829 13.8587C10.706 13.8587 10.8176 13.9717 10.8176 14.1975ZM12.1561 15.5528C12.1561 15.7787 12.0445 15.8917 11.8214 15.8917C11.5984 15.8917 11.4868 15.7787 11.4868 15.5528C11.4868 15.3269 11.5984 15.214 11.8214 15.214C12.0445 15.214 12.1561 15.3269 12.1561 15.5528ZM4.06232 8.734C4.06232 8.95989 3.95078 9.07283 3.72769 9.07283C3.50461 9.07283 3.39307 8.95989 3.39307 8.734C3.39307 8.50812 3.50461 8.39518 3.72769 8.39518C3.95078 8.39518 4.06232 8.50812 4.06232 8.734ZM4.06232 10.0893C4.06232 10.3152 3.95078 10.4281 3.72769 10.4281C3.50461 10.4281 3.39307 10.3152 3.39307 10.0893C3.39307 9.86342 3.50461 9.75047 3.72769 9.75047C3.95078 9.75047 4.06232 9.86342 4.06232 10.0893ZM4.06232 11.4658C4.06232 11.6917 3.95078 11.8046 3.72769 11.8046C3.50461 11.8046 3.39307 11.6917 3.39307 11.4658C3.39307 11.2399 3.50461 11.1269 3.72769 11.1269C3.95078 11.1269 4.06232 11.2399 4.06232 11.4658ZM4.06232 12.8211C4.06232 13.0469 3.95078 13.1599 3.72769 13.1599C3.50461 13.1599 3.39307 13.0469 3.39307 12.8211C3.39307 12.5952 3.50461 12.4822 3.72769 12.4822C3.95078 12.4822 4.06232 12.5952 4.06232 12.8211ZM4.06232 14.1975C4.06232 14.4234 3.95078 14.5364 3.72769 14.5364C3.50461 14.5364 3.39307 14.4234 3.39307 14.1975C3.39307 13.9717 3.50461 13.8587 3.72769 13.8587C3.95078 13.8587 4.06232 13.9717 4.06232 14.1975ZM4.06232 15.5528C4.06232 15.7787 3.95078 15.8917 3.72769 15.8917C3.50461 15.8917 3.39307 15.7787 3.39307 15.5528C3.39307 15.3269 3.50461 15.214 3.72769 15.214C3.95078 15.214 4.06232 15.3269 4.06232 15.5528Z" fill="white"/>
<path d="M23.9852 0.559526C23.9852 0.785408 23.8737 0.898349 23.6506 0.898349C23.4275 0.898349 23.316 0.785408 23.316 0.559526C23.316 0.333644 23.4275 0.220703 23.6506 0.220703C23.8737 0.220703 23.9852 0.333644 23.9852 0.559526ZM22.6467 0.559526C22.6467 0.785408 22.5351 0.898349 22.312 0.898349C22.089 0.898349 21.9774 0.785408 21.9774 0.559526C21.9774 0.333644 22.089 0.220703 22.312 0.220703C22.5351 0.220703 22.6467 0.333644 22.6467 0.559526ZM21.2872 0.559526C21.2872 0.785408 21.1757 0.898349 20.9526 0.898349C20.7295 0.898349 20.618 0.785408 20.618 0.559526C20.618 0.333644 20.7295 0.220703 20.9526 0.220703C21.1757 0.220703 21.2872 0.333644 21.2872 0.559526ZM19.9488 0.559526C19.9488 0.785408 19.8372 0.898349 19.6141 0.898349C19.391 0.898349 19.2795 0.785408 19.2795 0.559526C19.2795 0.333644 19.391 0.220703 19.6141 0.220703C19.8372 0.220703 19.9488 0.333644 19.9488 0.559526ZM18.5893 0.559526C18.5893 0.785408 18.4778 0.898349 18.2547 0.898349C18.0316 0.898349 17.9201 0.785408 17.9201 0.559526C17.9201 0.333644 18.0316 0.220703 18.2547 0.220703C18.4778 0.220703 18.5893 0.333644 18.5893 0.559526ZM19.9488 1.936C19.9488 2.16188 19.8372 2.27482 19.6141 2.27482C19.391 2.27482 19.2795 2.16188 19.2795 1.936C19.2795 1.71011 19.391 1.59717 19.6141 1.59717C19.8372 1.59717 19.9488 1.71011 19.9488 1.936ZM17.2508 0.559526C17.2508 0.785408 17.1393 0.898349 16.9162 0.898349C16.6931 0.898349 16.5816 0.785408 16.5816 0.559526C16.5816 0.333644 16.6931 0.220703 16.9162 0.220703C17.1393 0.220703 17.2508 0.333644 17.2508 0.559526ZM19.9278 3.27011C19.9278 3.49599 19.8163 3.60894 19.5932 3.60894C19.3701 3.60894 19.2586 3.49599 19.2586 3.27011C19.2586 3.04423 19.3701 2.93129 19.5932 2.93129C19.8163 2.93129 19.9278 3.04423 19.9278 3.27011ZM19.9278 4.62541C19.9278 4.85129 19.8163 4.96423 19.5932 4.96423C19.3701 4.96423 19.2586 4.85129 19.2586 4.62541C19.2586 4.39952 19.3701 4.28658 19.5932 4.28658C19.8163 4.28658 19.9278 4.39952 19.9278 4.62541ZM15.8914 0.559526C15.8914 0.785408 15.7799 0.898349 15.5568 0.898349C15.3337 0.898349 15.2222 0.785408 15.2222 0.559526C15.2222 0.333644 15.3337 0.220703 15.5568 0.220703C15.7799 0.220703 15.8914 0.333644 15.8914 0.559526ZM19.9278 6.00188C19.9278 6.22776 19.8163 6.3407 19.5932 6.3407C19.3701 6.3407 19.2586 6.22776 19.2586 6.00188C19.2586 5.77599 19.3701 5.66305 19.5932 5.66305C19.8163 5.66305 19.9278 5.77599 19.9278 6.00188ZM19.9278 7.35717C19.9278 7.58305 19.8163 7.69599 19.5932 7.69599C19.3701 7.69599 19.2586 7.58305 19.2586 7.35717C19.2586 7.13129 19.3701 7.01835 19.5932 7.01835C19.8163 7.01835 19.9278 7.13129 19.9278 7.35717ZM19.9278 8.73364C19.9278 8.95952 19.8163 9.07246 19.5932 9.07246C19.3701 9.07246 19.2586 8.95952 19.2586 8.73364C19.2586 8.50776 19.3701 8.39482 19.5932 8.39482C19.8163 8.39482 19.9278 8.50776 19.9278 8.73364ZM19.9278 10.0889C19.9278 10.3148 19.8163 10.4278 19.5932 10.4278C19.3701 10.4278 19.2586 10.3148 19.2586 10.0889C19.2586 9.86305 19.3701 9.75011 19.5932 9.75011C19.8163 9.75011 19.9278 9.86305 19.9278 10.0889ZM19.9278 11.4654C19.9278 11.6913 19.8163 11.8042 19.5932 11.8042C19.3701 11.8042 19.2586 11.6913 19.2586 11.4654C19.2586 11.2395 19.3701 11.1266 19.5932 11.1266C19.8163 11.1266 19.9278 11.2395 19.9278 11.4654ZM19.9278 12.8207C19.9278 13.0466 19.8163 13.1595 19.5932 13.1595C19.3701 13.1595 19.2586 13.0466 19.2586 12.8207C19.2586 12.5948 19.3701 12.4819 19.5932 12.4819C19.8163 12.4819 19.9278 12.5948 19.9278 12.8207ZM19.9278 14.1972C19.9278 14.4231 19.8163 14.536 19.5932 14.536C19.3701 14.536 19.2586 14.4231 19.2586 14.1972C19.2586 13.9713 19.3701 13.8583 19.5932 13.8583C19.8163 13.8583 19.9278 13.9713 19.9278 14.1972ZM19.9278 15.5525C19.9278 15.7783 19.8163 15.8913 19.5932 15.8913C19.3701 15.8913 19.2586 15.7783 19.2586 15.5525C19.2586 15.3266 19.3701 15.2136 19.5932 15.2136C19.8163 15.2136 19.9278 15.3266 19.9278 15.5525Z" fill="white"/>
<path d="M32.4469 0.559526C32.4469 0.785408 32.3353 0.898349 32.1123 0.898349C31.8892 0.898349 31.7776 0.785408 31.7776 0.559526C31.7776 0.333644 31.8892 0.220703 32.1123 0.220703C32.3353 0.220703 32.4469 0.333644 32.4469 0.559526ZM31.1084 0.559526C31.1084 0.785408 30.9899 0.898349 30.7528 0.898349C30.5298 0.898349 30.4182 0.785408 30.4182 0.559526C30.4182 0.333644 30.5298 0.220703 30.7528 0.220703C30.9899 0.220703 31.1084 0.333644 31.1084 0.559526ZM29.749 0.559526C29.749 0.785408 29.6374 0.898349 29.4143 0.898349C29.1913 0.898349 29.0797 0.785408 29.0797 0.559526C29.0797 0.333644 29.1913 0.220703 29.4143 0.220703C29.6374 0.220703 29.749 0.333644 29.749 0.559526ZM28.4105 0.559526C28.4105 0.785408 28.2919 0.898349 28.0549 0.898349C27.8318 0.898349 27.7203 0.785408 27.7203 0.559526C27.7203 0.333644 27.8318 0.220703 28.0549 0.220703C28.2919 0.220703 28.4105 0.333644 28.4105 0.559526ZM27.051 0.559526C27.051 0.785408 26.9395 0.898349 26.7164 0.898349C26.4933 0.898349 26.3818 0.785408 26.3818 0.559526C26.3818 0.333644 26.4933 0.220703 26.7164 0.220703C26.9395 0.220703 27.051 0.333644 27.051 0.559526ZM25.7125 0.559526C25.7125 0.785408 25.594 0.898349 25.357 0.898349C25.1339 0.898349 25.0224 0.785408 25.0224 0.559526C25.0224 0.333644 25.1339 0.220703 25.357 0.220703C25.594 0.220703 25.7125 0.333644 25.7125 0.559526ZM32.4469 7.39952C32.4469 7.62541 32.3353 7.73835 32.1123 7.73835C31.8892 7.73835 31.7776 7.62541 31.7776 7.39952C31.7776 7.17364 31.8892 7.0607 32.1123 7.0607C32.3353 7.0607 32.4469 7.17364 32.4469 7.39952ZM25.7125 1.936C25.7125 2.16188 25.594 2.27482 25.357 2.27482C25.1339 2.27482 25.0224 2.16188 25.0224 1.936C25.0224 1.71011 25.1339 1.59717 25.357 1.59717C25.594 1.59717 25.7125 1.71011 25.7125 1.936ZM31.1084 7.39952C31.1084 7.62541 30.9899 7.73835 30.7528 7.73835C30.5298 7.73835 30.4182 7.62541 30.4182 7.39952C30.4182 7.17364 30.5298 7.0607 30.7528 7.0607C30.9899 7.0607 31.1084 7.17364 31.1084 7.39952ZM25.7125 3.29129C25.7125 3.51717 25.594 3.63011 25.357 3.63011C25.1339 3.63011 25.0224 3.51717 25.0224 3.29129C25.0224 3.06541 25.1339 2.95246 25.357 2.95246C25.594 2.95246 25.7125 3.06541 25.7125 3.29129ZM29.749 7.39952C29.749 7.62541 29.6374 7.73835 29.4143 7.73835C29.1913 7.73835 29.0797 7.62541 29.0797 7.39952C29.0797 7.17364 29.1913 7.0607 29.4143 7.0607C29.6374 7.0607 29.749 7.17364 29.749 7.39952ZM25.7125 4.66776C25.7125 4.89364 25.594 5.00658 25.357 5.00658C25.1339 5.00658 25.0224 4.89364 25.0224 4.66776C25.0224 4.44188 25.1339 4.32894 25.357 4.32894C25.594 4.32894 25.7125 4.44188 25.7125 4.66776ZM28.4105 7.39952C28.4105 7.62541 28.2919 7.73835 28.0549 7.73835C27.8318 7.73835 27.7203 7.62541 27.7203 7.39952C27.7203 7.17364 27.8318 7.0607 28.0549 7.0607C28.2919 7.0607 28.4105 7.17364 28.4105 7.39952ZM25.7125 6.02305C25.7125 6.24894 25.594 6.36188 25.357 6.36188C25.1339 6.36188 25.0224 6.24894 25.0224 6.02305C25.0224 5.79717 25.1339 5.68423 25.357 5.68423C25.594 5.68423 25.7125 5.79717 25.7125 6.02305ZM27.051 7.39952C27.051 7.62541 26.9395 7.73835 26.7164 7.73835C26.4933 7.73835 26.3818 7.62541 26.3818 7.39952C26.3818 7.17364 26.4933 7.0607 26.7164 7.0607C26.9395 7.0607 27.051 7.17364 27.051 7.39952ZM25.7125 7.39952C25.7125 7.62541 25.594 7.73835 25.357 7.73835C25.1339 7.73835 25.0224 7.62541 25.0224 7.39952C25.0224 7.17364 25.1339 7.0607 25.357 7.0607C25.594 7.0607 25.7125 7.17364 25.7125 7.39952ZM32.426 15.5525C32.426 15.7783 32.3144 15.8913 32.0913 15.8913C31.8683 15.8913 31.7567 15.7783 31.7567 15.5525C31.7567 15.3266 31.8683 15.2136 32.0913 15.2136C32.3144 15.2136 32.426 15.3266 32.426 15.5525ZM25.7125 8.75482C25.7125 8.99482 25.594 9.11482 25.357 9.11482C25.1339 9.11482 25.0224 8.99482 25.0224 8.75482C25.0224 8.52893 25.1339 8.41599 25.357 8.41599C25.594 8.41599 25.7125 8.52893 25.7125 8.75482ZM25.6707 10.0889C25.6707 10.3148 25.5592 10.4278 25.3361 10.4278C25.113 10.4278 25.0015 10.3148 25.0015 10.0889C25.0015 9.86305 25.113 9.75011 25.3361 9.75011C25.5592 9.75011 25.6707 9.86305 25.6707 10.0889ZM31.0665 15.5525C31.0665 15.7783 30.955 15.8913 30.7319 15.8913C30.5088 15.8913 30.3973 15.7783 30.3973 15.5525C30.3973 15.3266 30.5088 15.2136 30.7319 15.2136C30.955 15.2136 31.0665 15.3266 31.0665 15.5525ZM29.728 15.5525C29.728 15.7783 29.6165 15.8913 29.3934 15.8913C29.1703 15.8913 29.0588 15.7783 29.0588 15.5525C29.0588 15.3266 29.1703 15.2136 29.3934 15.2136C29.6165 15.2136 29.728 15.3266 29.728 15.5525ZM25.6707 11.4654C25.6707 11.6913 25.5592 11.8042 25.3361 11.8042C25.113 11.8042 25.0015 11.6913 25.0015 11.4654C25.0015 11.2395 25.113 11.1266 25.3361 11.1266C25.5592 11.1266 25.6707 11.2395 25.6707 11.4654ZM25.6707 12.8207C25.6707 13.0466 25.5592 13.1595 25.3361 13.1595C25.113 13.1595 25.0015 13.0466 25.0015 12.8207C25.0015 12.5948 25.113 12.4819 25.3361 12.4819C25.5592 12.4819 25.6707 12.5948 25.6707 12.8207ZM28.3686 15.5525C28.3686 15.7783 28.2571 15.8913 28.034 15.8913C27.8109 15.8913 27.6994 15.7783 27.6994 15.5525C27.6994 15.3266 27.8109 15.2136 28.034 15.2136C28.2571 15.2136 28.3686 15.3266 28.3686 15.5525ZM27.0301 15.5525C27.0301 15.7783 26.9186 15.8913 26.6955 15.8913C26.4724 15.8913 26.3609 15.7783 26.3609 15.5525C26.3609 15.3266 26.4724 15.2136 26.6955 15.2136C26.9186 15.2136 27.0301 15.3266 27.0301 15.5525ZM25.6707 14.1972C25.6707 14.4231 25.5592 14.536 25.3361 14.536C25.113 14.536 25.0015 14.4231 25.0015 14.1972C25.0015 13.9713 25.113 13.8583 25.3361 13.8583C25.5592 13.8583 25.6707 13.9713 25.6707 14.1972ZM25.6707 15.5525C25.6707 15.7783 25.5592 15.8913 25.3361 15.8913C25.113 15.8913 25.0015 15.7783 25.0015 15.5525C25.0015 15.3266 25.113 15.2136 25.3361 15.2136C25.5592 15.2136 25.6707 15.3266 25.6707 15.5525Z" fill="white"/>
<path d="M40.5849 0.581011C40.5849 0.806893 40.4734 0.919835 40.2503 0.919835C40.0272 0.919835 39.9157 0.806893 39.9157 0.581011C39.9157 0.355129 40.0272 0.242188 40.2503 0.242188C40.4734 0.242188 40.5849 0.355129 40.5849 0.581011ZM41.9444 1.93631C41.9444 2.17631 41.8328 2.29631 41.6097 2.29631C41.3727 2.29631 41.2542 2.17631 41.2542 1.93631C41.2542 1.71042 41.3727 1.59748 41.6097 1.59748C41.8328 1.59748 41.9444 1.71042 41.9444 1.93631ZM39.2464 0.581011C39.2464 0.806893 39.1279 0.919835 38.8909 0.919835C38.6678 0.919835 38.5563 0.806893 38.5563 0.581011C38.5563 0.355129 38.6678 0.242188 38.8909 0.242188C39.1279 0.242188 39.2464 0.355129 39.2464 0.581011ZM41.9444 3.35513C41.9444 3.58101 41.8258 3.69395 41.5888 3.69395C41.3657 3.69395 41.2542 3.58101 41.2542 3.35513C41.2542 3.12924 41.3657 3.0163 41.5888 3.0163C41.8258 3.0163 41.9444 3.12924 41.9444 3.35513ZM37.887 0.581011C37.887 0.806893 37.7755 0.919835 37.5524 0.919835C37.3293 0.919835 37.2178 0.806893 37.2178 0.581011C37.2178 0.355129 37.3293 0.242188 37.5524 0.242188C37.7755 0.242188 37.887 0.355129 37.887 0.581011ZM41.9444 4.71042C41.9444 4.9363 41.8258 5.04924 41.5888 5.04924C41.3657 5.04924 41.2542 4.9363 41.2542 4.71042C41.2542 4.48454 41.3657 4.3716 41.5888 4.3716C41.8258 4.3716 41.9444 4.48454 41.9444 4.71042ZM36.5485 0.581011C36.5485 0.806893 36.43 0.919835 36.193 0.919835C35.9699 0.919835 35.8584 0.806893 35.8584 0.581011C35.8584 0.355129 35.9699 0.242188 36.193 0.242188C36.43 0.242188 36.5485 0.355129 36.5485 0.581011ZM41.9444 6.04454C41.9444 6.27042 41.8328 6.38336 41.6097 6.38336C41.3727 6.38336 41.2542 6.27042 41.2542 6.04454C41.2542 5.81866 41.3727 5.70571 41.6097 5.70571C41.8328 5.70571 41.9444 5.81866 41.9444 6.04454ZM35.1891 0.581011C35.1891 0.806893 35.0776 0.919835 34.8545 0.919835C34.6314 0.919835 34.5199 0.806893 34.5199 0.581011C34.5199 0.355129 34.6314 0.242188 34.8545 0.242188C35.0776 0.242188 35.1891 0.355129 35.1891 0.581011ZM35.1891 1.93631C35.1891 2.17631 35.0776 2.29631 34.8545 2.29631C34.6314 2.29631 34.5199 2.17631 34.5199 1.93631C34.5199 1.71042 34.6314 1.59748 34.8545 1.59748C35.0776 1.59748 35.1891 1.71042 35.1891 1.93631ZM40.5849 7.39983C40.5849 7.63983 40.4734 7.75983 40.2503 7.75983C40.0272 7.75983 39.9157 7.63983 39.9157 7.39983C39.9157 7.17395 40.0272 7.06101 40.2503 7.06101C40.4734 7.06101 40.5849 7.17395 40.5849 7.39983ZM35.1891 3.31277C35.1891 3.53866 35.0776 3.6516 34.8545 3.6516C34.6314 3.6516 34.5199 3.53866 34.5199 3.31277C34.5199 3.08689 34.6314 2.97395 34.8545 2.97395C35.0776 2.97395 35.1891 3.08689 35.1891 3.31277ZM39.2464 7.39983C39.2464 7.63983 39.1279 7.75983 38.8909 7.75983C38.6678 7.75983 38.5563 7.63983 38.5563 7.39983C38.5563 7.17395 38.6678 7.06101 38.8909 7.06101C39.1279 7.06101 39.2464 7.17395 39.2464 7.39983ZM35.1891 4.66807C35.1891 4.90807 35.0776 5.02807 34.8545 5.02807C34.6314 5.02807 34.5199 4.90807 34.5199 4.66807C34.5199 4.44219 34.6314 4.32924 34.8545 4.32924C35.0776 4.32924 35.1891 4.44219 35.1891 4.66807ZM37.887 7.39983C37.887 7.63983 37.7755 7.75983 37.5524 7.75983C37.3293 7.75983 37.2178 7.63983 37.2178 7.39983C37.2178 7.17395 37.3293 7.06101 37.5524 7.06101C37.7755 7.06101 37.887 7.17395 37.887 7.39983ZM35.1891 6.04454C35.1891 6.27042 35.0776 6.38336 34.8545 6.38336C34.6314 6.38336 34.5199 6.27042 34.5199 6.04454C34.5199 5.81866 34.6314 5.70571 34.8545 5.70571C35.0776 5.70571 35.1891 5.81866 35.1891 6.04454ZM36.5485 7.39983C36.5485 7.63983 36.43 7.75983 36.193 7.75983C35.9699 7.75983 35.8584 7.63983 35.8584 7.39983C35.8584 7.17395 35.9699 7.06101 36.193 7.06101C36.43 7.06101 36.5485 7.17395 36.5485 7.39983ZM36.5067 8.73395C36.5067 8.95983 36.3951 9.07277 36.1721 9.07277C35.949 9.07277 35.8374 8.95983 35.8374 8.73395C35.8374 8.50807 35.949 8.39513 36.1721 8.39513C36.3951 8.39513 36.5067 8.50807 36.5067 8.73395ZM37.8452 10.0892C37.8452 10.3151 37.7337 10.4281 37.5106 10.4281C37.2875 10.4281 37.1759 10.3151 37.1759 10.0892C37.1759 9.86336 37.2875 9.75042 37.5106 9.75042C37.7337 9.75042 37.8452 9.86336 37.8452 10.0892ZM39.2046 11.4657C39.2046 11.6916 39.0931 11.8045 38.87 11.8045C38.6469 11.8045 38.5354 11.6916 38.5354 11.4657C38.5354 11.2398 38.6469 11.1269 38.87 11.1269C39.0931 11.1269 39.2046 11.2398 39.2046 11.4657ZM40.5431 12.821C40.5431 13.0469 40.4316 13.1598 40.2085 13.1598C39.9854 13.1598 39.8739 13.0469 39.8739 12.821C39.8739 12.5951 39.9854 12.4822 40.2085 12.4822C40.4316 12.4822 40.5431 12.5951 40.5431 12.821ZM41.9025 14.1975C41.9025 14.4234 41.791 14.5363 41.5679 14.5363C41.3448 14.5363 41.2333 14.4234 41.2333 14.1975C41.2333 13.9716 41.3448 13.8587 41.5679 13.8587C41.791 13.8587 41.9025 13.9716 41.9025 14.1975ZM43.241 15.5528C43.241 15.7787 43.1295 15.8916 42.9064 15.8916C42.6833 15.8916 42.5718 15.7787 42.5718 15.5528C42.5718 15.3269 42.6833 15.214 42.9064 15.214C43.1295 15.214 43.241 15.3269 43.241 15.5528ZM35.1891 7.39983C35.1891 7.63983 35.0776 7.75983 34.8545 7.75983C34.6314 7.75983 34.5199 7.63983 34.5199 7.39983C34.5199 7.17395 34.6314 7.06101 34.8545 7.06101C35.0776 7.06101 35.1891 7.17395 35.1891 7.39983ZM35.1473 8.73395C35.1473 8.95983 35.0357 9.07277 34.8127 9.07277C34.5896 9.07277 34.478 8.95983 34.478 8.73395C34.478 8.50807 34.5896 8.39513 34.8127 8.39513C35.0357 8.39513 35.1473 8.50807 35.1473 8.73395ZM35.1473 10.0892C35.1473 10.3151 35.0357 10.4281 34.8127 10.4281C34.5896 10.4281 34.478 10.3151 34.478 10.0892C34.478 9.86336 34.5896 9.75042 34.8127 9.75042C35.0357 9.75042 35.1473 9.86336 35.1473 10.0892ZM35.1473 11.4657C35.1473 11.6916 35.0357 11.8045 34.8127 11.8045C34.5896 11.8045 34.478 11.6916 34.478 11.4657C34.478 11.2398 34.5896 11.1269 34.8127 11.1269C35.0357 11.1269 35.1473 11.2398 35.1473 11.4657ZM35.1473 12.821C35.1473 13.0469 35.0357 13.1598 34.8127 13.1598C34.5896 13.1598 34.478 13.0469 34.478 12.821C34.478 12.5951 34.5896 12.4822 34.8127 12.4822C35.0357 12.4822 35.1473 12.5951 35.1473 12.821ZM35.1473 14.1975C35.1473 14.4234 35.0357 14.5363 34.8127 14.5363C34.5896 14.5363 34.478 14.4234 34.478 14.1975C34.478 13.9716 34.5896 13.8587 34.8127 13.8587C35.0357 13.8587 35.1473 13.9716 35.1473 14.1975ZM35.1473 15.5528C35.1473 15.7787 35.0357 15.8916 34.8127 15.8916C34.5896 15.8916 34.478 15.7787 34.478 15.5528C34.478 15.3269 34.5896 15.214 34.8127 15.214C35.0357 15.214 35.1473 15.3269 35.1473 15.5528Z" fill="white"/>
<path d="M54.0657 0.538711C54.0657 0.764593 53.9542 0.877535 53.7311 0.877535C53.508 0.877535 53.3965 0.764593 53.3965 0.538711C53.3965 0.298711 53.508 0.178711 53.7311 0.178711C53.9542 0.178711 54.0657 0.298711 54.0657 0.538711ZM54.0657 1.89401C54.0657 2.11989 53.9542 2.23283 53.7311 2.23283C53.508 2.23283 53.3965 2.11989 53.3965 1.89401C53.3965 1.66812 53.508 1.55518 53.7311 1.55518C53.9542 1.55518 54.0657 1.66812 54.0657 1.89401ZM54.0657 3.27047C54.0657 3.49636 53.9542 3.6093 53.7311 3.6093C53.508 3.6093 53.3965 3.49636 53.3965 3.27047C53.3965 3.04459 53.508 2.93165 53.7311 2.93165C53.9542 2.93165 54.0657 3.04459 54.0657 3.27047ZM54.0657 4.62577C54.0657 4.85165 53.9542 4.96459 53.7311 4.96459C53.508 4.96459 53.3965 4.85165 53.3965 4.62577C53.3965 4.39989 53.508 4.28694 53.7311 4.28694C53.9542 4.28694 54.0657 4.39989 54.0657 4.62577ZM54.0657 6.00224C54.0657 6.22812 53.9542 6.34106 53.7311 6.34106C53.508 6.34106 53.3965 6.22812 53.3965 6.00224C53.3965 5.77636 53.508 5.66341 53.7311 5.66341C53.9542 5.66341 54.0657 5.77636 54.0657 6.00224ZM54.0657 7.35753C54.0657 7.58342 53.9542 7.69636 53.7311 7.69636C53.508 7.69636 53.3965 7.58342 53.3965 7.35753C53.3965 7.13165 53.508 7.01871 53.7311 7.01871C53.9542 7.01871 54.0657 7.13165 54.0657 7.35753ZM47.436 1.93636C47.436 2.16224 47.3175 2.27518 47.0804 2.27518C46.8573 2.27518 46.7458 2.16224 46.7458 1.93636C46.7458 1.69636 46.8573 1.57636 47.0804 1.57636C47.3175 1.57636 47.436 1.69636 47.436 1.93636ZM45.972 0.538711C45.972 0.764593 45.8604 0.877535 45.6374 0.877535C45.4143 0.877535 45.3027 0.764593 45.3027 0.538711C45.3027 0.298711 45.4143 0.178711 45.6374 0.178711C45.8604 0.178711 45.972 0.298711 45.972 0.538711ZM54.0657 8.734C54.0657 8.95989 53.9542 9.07283 53.7311 9.07283C53.508 9.07283 53.3965 8.95989 53.3965 8.734C53.3965 8.50812 53.508 8.39518 53.7311 8.39518C53.9542 8.39518 54.0657 8.50812 54.0657 8.734ZM45.972 1.89401C45.972 2.11989 45.8604 2.23283 45.6374 2.23283C45.4143 2.23283 45.3027 2.11989 45.3027 1.89401C45.3027 1.66812 45.4143 1.55518 45.6374 1.55518C45.8604 1.55518 45.972 1.66812 45.972 1.89401ZM47.3314 3.27047C47.3314 3.49636 47.2199 3.6093 46.9968 3.6093C46.7737 3.6093 46.6621 3.49636 46.6621 3.27047C46.6621 3.04459 46.7737 2.93165 46.9968 2.93165C47.2199 2.93165 47.3314 3.04459 47.3314 3.27047ZM48.6699 4.62577C48.6699 4.85165 48.5584 4.96459 48.3353 4.96459C48.1122 4.96459 48.0007 4.85165 48.0007 4.62577C48.0007 4.39989 48.1122 4.28694 48.3353 4.28694C48.5584 4.28694 48.6699 4.39989 48.6699 4.62577ZM54.0657 10.0893C54.0657 10.3152 53.9542 10.4281 53.7311 10.4281C53.508 10.4281 53.3965 10.3152 53.3965 10.0893C53.3965 9.86342 53.508 9.75047 53.7311 9.75047C53.9542 9.75047 54.0657 9.86342 54.0657 10.0893ZM50.0293 7.35753C50.0293 7.58342 49.9178 7.69636 49.6947 7.69636C49.4716 7.69636 49.3601 7.58342 49.3601 7.35753C49.3601 7.13165 49.4716 7.01871 49.6947 7.01871C49.9178 7.01871 50.0293 7.13165 50.0293 7.35753ZM45.972 3.27047C45.972 3.49636 45.8604 3.6093 45.6374 3.6093C45.4143 3.6093 45.3027 3.49636 45.3027 3.27047C45.3027 3.04459 45.4143 2.93165 45.6374 2.93165C45.8604 2.93165 45.972 3.04459 45.972 3.27047ZM48.6699 6.00224C48.6699 6.22812 48.5584 6.34106 48.3353 6.34106C48.1122 6.34106 48.0007 6.22812 48.0007 6.00224C48.0007 5.77636 48.1122 5.66341 48.3353 5.66341C48.5584 5.66341 48.6699 5.77636 48.6699 6.00224ZM54.0657 11.4658C54.0657 11.6917 53.9542 11.8046 53.7311 11.8046C53.508 11.8046 53.3965 11.6917 53.3965 11.4658C53.3965 11.2399 53.508 11.1269 53.7311 11.1269C53.9542 11.1269 54.0657 11.2399 54.0657 11.4658ZM45.972 4.62577C45.972 4.85165 45.8604 4.96459 45.6374 4.96459C45.4143 4.96459 45.3027 4.85165 45.3027 4.62577C45.3027 4.39989 45.4143 4.28694 45.6374 4.28694C45.8604 4.28694 45.972 4.39989 45.972 4.62577ZM50.0293 8.734C50.0293 8.95989 49.9178 9.07283 49.6947 9.07283C49.4716 9.07283 49.3601 8.95989 49.3601 8.734C49.3601 8.50812 49.4716 8.39518 49.6947 8.39518C49.9178 8.39518 50.0293 8.50812 50.0293 8.734ZM51.3678 10.0893C51.3678 10.3152 51.2563 10.4281 51.0332 10.4281C50.8101 10.4281 50.6986 10.3152 50.6986 10.0893C50.6986 9.86342 50.8101 9.75047 51.0332 9.75047C51.2563 9.75047 51.3678 9.86342 51.3678 10.0893ZM54.0657 12.8211C54.0657 13.0469 53.9542 13.1599 53.7311 13.1599C53.508 13.1599 53.3965 13.0469 53.3965 12.8211C53.3965 12.5952 53.508 12.4822 53.7311 12.4822C53.9542 12.4822 54.0657 12.5952 54.0657 12.8211ZM52.7272 12.8211C52.7272 13.0469 52.6157 13.1599 52.3926 13.1599C52.1695 13.1599 52.058 13.0469 52.058 12.8211C52.058 12.5952 52.1695 12.4822 52.3926 12.4822C52.6157 12.4822 52.7272 12.5952 52.7272 12.8211ZM45.972 6.00224C45.972 6.22812 45.8604 6.34106 45.6374 6.34106C45.4143 6.34106 45.3027 6.22812 45.3027 6.00224C45.3027 5.77636 45.4143 5.66341 45.6374 5.66341C45.8604 5.66341 45.972 5.77636 45.972 6.00224ZM51.3678 11.4658C51.3678 11.6917 51.2563 11.8046 51.0332 11.8046C50.8101 11.8046 50.6986 11.6917 50.6986 11.4658C50.6986 11.2399 50.8101 11.1269 51.0332 11.1269C51.2563 11.1269 51.3678 11.2399 51.3678 11.4658ZM54.0657 14.1975C54.0657 14.4234 53.9542 14.5364 53.7311 14.5364C53.508 14.5364 53.3965 14.4234 53.3965 14.1975C53.3965 13.9717 53.508 13.8587 53.7311 13.8587C53.9542 13.8587 54.0657 13.9717 54.0657 14.1975ZM45.972 7.35753C45.972 7.58342 45.8604 7.69636 45.6374 7.69636C45.4143 7.69636 45.3027 7.58342 45.3027 7.35753C45.3027 7.13165 45.4143 7.01871 45.6374 7.01871C45.8604 7.01871 45.972 7.13165 45.972 7.35753ZM52.7272 14.1975C52.7272 14.4234 52.6157 14.5364 52.3926 14.5364C52.1695 14.5364 52.058 14.4234 52.058 14.1975C52.058 13.9717 52.1695 13.8587 52.3926 13.8587C52.6157 13.8587 52.7272 13.9717 52.7272 14.1975ZM54.0657 15.5528C54.0657 15.7787 53.9542 15.8917 53.7311 15.8917C53.508 15.8917 53.3965 15.7787 53.3965 15.5528C53.3965 15.3269 53.508 15.214 53.7311 15.214C53.9542 15.214 54.0657 15.3269 54.0657 15.5528ZM45.972 8.734C45.972 8.95989 45.8604 9.07283 45.6374 9.07283C45.4143 9.07283 45.3027 8.95989 45.3027 8.734C45.3027 8.50812 45.4143 8.39518 45.6374 8.39518C45.8604 8.39518 45.972 8.50812 45.972 8.734ZM45.972 10.0893C45.972 10.3152 45.8604 10.4281 45.6374 10.4281C45.4143 10.4281 45.3027 10.3152 45.3027 10.0893C45.3027 9.86342 45.4143 9.75047 45.6374 9.75047C45.8604 9.75047 45.972 9.86342 45.972 10.0893ZM45.972 11.4658C45.972 11.6917 45.8604 11.8046 45.6374 11.8046C45.4143 11.8046 45.3027 11.6917 45.3027 11.4658C45.3027 11.2399 45.4143 11.1269 45.6374 11.1269C45.8604 11.1269 45.972 11.2399 45.972 11.4658ZM45.972 12.8211C45.972 13.0469 45.8604 13.1599 45.6374 13.1599C45.4143 13.1599 45.3027 13.0469 45.3027 12.8211C45.3027 12.5952 45.4143 12.4822 45.6374 12.4822C45.8604 12.4822 45.972 12.5952 45.972 12.8211ZM45.972 14.1975C45.972 14.4234 45.8604 14.5364 45.6374 14.5364C45.4143 14.5364 45.3027 14.4234 45.3027 14.1975C45.3027 13.9717 45.4143 13.8587 45.6374 13.8587C45.8604 13.8587 45.972 13.9717 45.972 14.1975ZM45.972 15.5528C45.972 15.7787 45.8604 15.8917 45.6374 15.8917C45.4143 15.8917 45.3027 15.7787 45.3027 15.5528C45.3027 15.3269 45.4143 15.214 45.6374 15.214C45.8604 15.214 45.972 15.3269 45.972 15.5528Z" fill="white"/>
<path d="M69.778 0.539018C69.778 0.7649 69.6664 0.877841 69.4433 0.877841C69.2203 0.877841 69.1087 0.7649 69.1087 0.539018C69.1087 0.313136 69.2203 0.200195 69.4433 0.200195C69.6664 0.200195 69.778 0.313136 69.778 0.539018ZM72.4759 3.27078C72.4759 3.49666 72.3643 3.6096 72.1413 3.6096C71.9182 3.6096 71.8066 3.49666 71.8066 3.27078C71.8066 3.0449 71.9182 2.93196 72.1413 2.93196C72.3643 2.93196 72.4759 3.0449 72.4759 3.27078ZM71.1374 1.91549C71.1374 2.14137 71.0258 2.25431 70.8028 2.25431C70.5657 2.25431 70.4472 2.14137 70.4472 1.91549C70.4472 1.68961 70.5657 1.57666 70.8028 1.57666C71.0258 1.57666 71.1374 1.68961 71.1374 1.91549ZM68.4395 0.539018C68.4395 0.7649 68.321 0.877841 68.0839 0.877841C67.8608 0.877841 67.7493 0.7649 67.7493 0.539018C67.7493 0.313136 67.8608 0.200195 68.0839 0.200195C68.321 0.200195 68.4395 0.313136 68.4395 0.539018ZM67.0801 0.539018C67.0801 0.7649 66.9685 0.877841 66.7454 0.877841C66.5223 0.877841 66.4108 0.7649 66.4108 0.539018C66.4108 0.313136 66.5223 0.200195 66.7454 0.200195C66.9685 0.200195 67.0801 0.313136 67.0801 0.539018ZM65.7416 1.91549C65.7416 2.14137 65.623 2.25431 65.386 2.25431C65.1629 2.25431 65.0514 2.14137 65.0514 1.91549C65.0514 1.68961 65.1629 1.57666 65.386 1.57666C65.623 1.57666 65.7416 1.68961 65.7416 1.91549ZM72.4759 10.1108C72.4759 10.3367 72.3643 10.4496 72.1413 10.4496C71.9182 10.4496 71.8066 10.3367 71.8066 10.1108C71.8066 9.8849 71.9182 9.77196 72.1413 9.77196C72.3643 9.77196 72.4759 9.8849 72.4759 10.1108ZM69.778 7.37902C69.778 7.6049 69.6664 7.71784 69.4433 7.71784C69.2203 7.71784 69.1087 7.6049 69.1087 7.37902C69.1087 7.15313 69.2203 7.04019 69.4433 7.04019C69.6664 7.04019 69.778 7.15313 69.778 7.37902ZM71.1374 8.73431C71.1374 8.97431 71.0258 9.09431 70.8028 9.09431C70.5657 9.09431 70.4472 8.97431 70.4472 8.73431C70.4472 8.50843 70.5657 8.39549 70.8028 8.39549C71.0258 8.39549 71.1374 8.50843 71.1374 8.73431ZM64.3821 3.27078C64.3821 3.49666 64.2706 3.6096 64.0475 3.6096C63.8244 3.6096 63.7129 3.49666 63.7129 3.27078C63.7129 3.0449 63.8244 2.93196 64.0475 2.93196C64.2706 2.93196 64.3821 3.0449 64.3821 3.27078ZM68.4395 7.37902C68.4395 7.6049 68.321 7.71784 68.0839 7.71784C67.8608 7.71784 67.7493 7.6049 67.7493 7.37902C67.7493 7.15313 67.8608 7.04019 68.0839 7.04019C68.321 7.04019 68.4395 7.15313 68.4395 7.37902ZM72.4759 11.4661C72.4759 11.7061 72.3643 11.8261 72.1413 11.8261C71.9182 11.8261 71.8066 11.7061 71.8066 11.4661C71.8066 11.2402 71.9182 11.1273 72.1413 11.1273C72.3643 11.1273 72.4759 11.2402 72.4759 11.4661ZM72.4759 12.8214C72.4759 13.0473 72.3643 13.1602 72.1413 13.1602C71.9182 13.1602 71.8066 13.0473 71.8066 12.8214C71.8066 12.5955 71.9182 12.4825 72.1413 12.4825C72.3643 12.4825 72.4759 12.5955 72.4759 12.8214ZM65.7416 6.00255C65.7416 6.22843 65.623 6.34137 65.386 6.34137C65.1629 6.34137 65.0514 6.22843 65.0514 6.00255C65.0514 5.77666 65.1629 5.66372 65.386 5.66372C65.623 5.66372 65.7416 5.77666 65.7416 6.00255ZM64.3821 4.64725C64.3821 4.87313 64.2706 4.98607 64.0475 4.98607C63.8244 4.98607 63.7129 4.87313 63.7129 4.64725C63.7129 4.42137 63.8244 4.30843 64.0475 4.30843C64.2706 4.30843 64.3821 4.42137 64.3821 4.64725ZM67.0801 7.37902C67.0801 7.6049 66.9685 7.71784 66.7454 7.71784C66.5223 7.71784 66.4108 7.6049 66.4108 7.37902C66.4108 7.15313 66.5223 7.04019 66.7454 7.04019C66.9685 7.04019 67.0801 7.15313 67.0801 7.37902ZM71.1374 14.1978C71.1374 14.4237 71.0258 14.5367 70.8028 14.5367C70.5797 14.5367 70.4681 14.4237 70.4681 14.1978C70.4681 13.972 70.5797 13.859 70.8028 13.859C71.0258 13.859 71.1374 13.972 71.1374 14.1978ZM69.778 15.5531C69.778 15.779 69.6664 15.892 69.4433 15.892C69.2203 15.892 69.1087 15.779 69.1087 15.5531C69.1087 15.3273 69.2203 15.2143 69.4433 15.2143C69.6664 15.2143 69.778 15.3273 69.778 15.5531ZM68.4395 15.5531C68.4395 15.779 68.3279 15.892 68.1048 15.892C67.8818 15.892 67.7702 15.779 67.7702 15.5531C67.7702 15.3273 67.8818 15.2143 68.1048 15.2143C68.3279 15.2143 68.4395 15.3273 68.4395 15.5531ZM64.3821 12.8214C64.3821 13.0473 64.2706 13.1602 64.0475 13.1602C63.8244 13.1602 63.7129 13.0473 63.7129 12.8214C63.7129 12.5955 63.8244 12.4825 64.0475 12.4825C64.2706 12.4825 64.3821 12.5955 64.3821 12.8214ZM65.7416 14.1978C65.7416 14.4237 65.63 14.5367 65.4069 14.5367C65.1838 14.5367 65.0723 14.4237 65.0723 14.1978C65.0723 13.972 65.1838 13.859 65.4069 13.859C65.63 13.859 65.7416 13.972 65.7416 14.1978ZM67.0801 15.5531C67.0801 15.779 66.9685 15.892 66.7454 15.892C66.5223 15.892 66.4108 15.779 66.4108 15.5531C66.4108 15.3273 66.5223 15.2143 66.7454 15.2143C66.9685 15.2143 67.0801 15.3273 67.0801 15.5531Z" fill="white"/>
<path d="M82.1932 0.559526C82.1932 0.785408 82.0816 0.898349 81.8586 0.898349C81.6355 0.898349 81.5239 0.785408 81.5239 0.559526C81.5239 0.333644 81.6355 0.220703 81.8586 0.220703C82.0816 0.220703 82.1932 0.333644 82.1932 0.559526ZM80.8547 0.559526C80.8547 0.785408 80.7431 0.898349 80.5201 0.898349C80.297 0.898349 80.1854 0.785408 80.1854 0.559526C80.1854 0.333644 80.297 0.220703 80.5201 0.220703C80.7431 0.220703 80.8547 0.333644 80.8547 0.559526ZM79.4953 0.559526C79.4953 0.785408 79.3837 0.898349 79.1606 0.898349C78.9376 0.898349 78.826 0.785408 78.826 0.559526C78.826 0.333644 78.9376 0.220703 79.1606 0.220703C79.3837 0.220703 79.4953 0.333644 79.4953 0.559526ZM78.1568 0.559526C78.1568 0.785408 78.0452 0.898349 77.8221 0.898349C77.5991 0.898349 77.4875 0.785408 77.4875 0.559526C77.4875 0.333644 77.5991 0.220703 77.8221 0.220703C78.0452 0.220703 78.1568 0.333644 78.1568 0.559526ZM76.7973 0.559526C76.7973 0.785408 76.6858 0.898349 76.4627 0.898349C76.2396 0.898349 76.1281 0.785408 76.1281 0.559526C76.1281 0.333644 76.2396 0.220703 76.4627 0.220703C76.6858 0.220703 76.7973 0.333644 76.7973 0.559526ZM78.1568 1.936C78.1568 2.16188 78.0452 2.27482 77.8221 2.27482C77.5991 2.27482 77.4875 2.16188 77.4875 1.936C77.4875 1.71011 77.5991 1.59717 77.8221 1.59717C78.0452 1.59717 78.1568 1.71011 78.1568 1.936ZM75.4588 0.559526C75.4588 0.785408 75.3473 0.898349 75.1242 0.898349C74.9011 0.898349 74.7896 0.785408 74.7896 0.559526C74.7896 0.333644 74.9011 0.220703 75.1242 0.220703C75.3473 0.220703 75.4588 0.333644 75.4588 0.559526ZM78.1358 3.27011C78.1358 3.49599 78.0243 3.60894 77.8012 3.60894C77.5781 3.60894 77.4666 3.49599 77.4666 3.27011C77.4666 3.04423 77.5781 2.93129 77.8012 2.93129C78.0243 2.93129 78.1358 3.04423 78.1358 3.27011ZM78.1358 4.62541C78.1358 4.85129 78.0243 4.96423 77.8012 4.96423C77.5781 4.96423 77.4666 4.85129 77.4666 4.62541C77.4666 4.39952 77.5781 4.28658 77.8012 4.28658C78.0243 4.28658 78.1358 4.39952 78.1358 4.62541ZM74.0994 0.559526C74.0994 0.785408 73.9879 0.898349 73.7648 0.898349C73.5417 0.898349 73.4302 0.785408 73.4302 0.559526C73.4302 0.333644 73.5417 0.220703 73.7648 0.220703C73.9879 0.220703 74.0994 0.333644 74.0994 0.559526ZM78.1358 6.00188C78.1358 6.22776 78.0243 6.3407 77.8012 6.3407C77.5781 6.3407 77.4666 6.22776 77.4666 6.00188C77.4666 5.77599 77.5781 5.66305 77.8012 5.66305C78.0243 5.66305 78.1358 5.77599 78.1358 6.00188ZM78.1358 7.35717C78.1358 7.58305 78.0243 7.69599 77.8012 7.69599C77.5781 7.69599 77.4666 7.58305 77.4666 7.35717C77.4666 7.13129 77.5781 7.01835 77.8012 7.01835C78.0243 7.01835 78.1358 7.13129 78.1358 7.35717ZM78.1358 8.73364C78.1358 8.95952 78.0243 9.07246 77.8012 9.07246C77.5781 9.07246 77.4666 8.95952 77.4666 8.73364C77.4666 8.50776 77.5781 8.39482 77.8012 8.39482C78.0243 8.39482 78.1358 8.50776 78.1358 8.73364ZM78.1358 10.0889C78.1358 10.3148 78.0243 10.4278 77.8012 10.4278C77.5781 10.4278 77.4666 10.3148 77.4666 10.0889C77.4666 9.86305 77.5781 9.75011 77.8012 9.75011C78.0243 9.75011 78.1358 9.86305 78.1358 10.0889ZM78.1358 11.4654C78.1358 11.6913 78.0243 11.8042 77.8012 11.8042C77.5781 11.8042 77.4666 11.6913 77.4666 11.4654C77.4666 11.2395 77.5781 11.1266 77.8012 11.1266C78.0243 11.1266 78.1358 11.2395 78.1358 11.4654ZM78.1358 12.8207C78.1358 13.0466 78.0243 13.1595 77.8012 13.1595C77.5781 13.1595 77.4666 13.0466 77.4666 12.8207C77.4666 12.5948 77.5781 12.4819 77.8012 12.4819C78.0243 12.4819 78.1358 12.5948 78.1358 12.8207ZM78.1358 14.1972C78.1358 14.4231 78.0243 14.536 77.8012 14.536C77.5781 14.536 77.4666 14.4231 77.4666 14.1972C77.4666 13.9713 77.5781 13.8583 77.8012 13.8583C78.0243 13.8583 78.1358 13.9713 78.1358 14.1972ZM78.1358 15.5525C78.1358 15.7783 78.0243 15.8913 77.8012 15.8913C77.5781 15.8913 77.4666 15.7783 77.4666 15.5525C77.4666 15.3266 77.5781 15.2136 77.8012 15.2136C78.0243 15.2136 78.1358 15.3266 78.1358 15.5525Z" fill="white"/>
<path d="M91.9725 0.538711C91.9725 0.764593 91.8609 0.877535 91.6378 0.877535C91.4148 0.877535 91.3032 0.764593 91.3032 0.538711C91.3032 0.298711 91.4148 0.178711 91.6378 0.178711C91.8609 0.178711 91.9725 0.298711 91.9725 0.538711ZM91.9725 1.89401C91.9725 2.11989 91.8609 2.23283 91.6378 2.23283C91.4148 2.23283 91.3032 2.11989 91.3032 1.89401C91.3032 1.66812 91.4148 1.55518 91.6378 1.55518C91.8609 1.55518 91.9725 1.66812 91.9725 1.89401ZM91.9725 3.27047C91.9725 3.49636 91.8609 3.6093 91.6378 3.6093C91.4148 3.6093 91.3032 3.49636 91.3032 3.27047C91.3032 3.04459 91.4148 2.93165 91.6378 2.93165C91.8609 2.93165 91.9725 3.04459 91.9725 3.27047ZM91.9725 4.62577C91.9725 4.85165 91.8609 4.96459 91.6378 4.96459C91.4148 4.96459 91.3032 4.85165 91.3032 4.62577C91.3032 4.39989 91.4148 4.28694 91.6378 4.28694C91.8609 4.28694 91.9725 4.39989 91.9725 4.62577ZM91.9725 6.00224C91.9725 6.22812 91.8609 6.34106 91.6378 6.34106C91.4148 6.34106 91.3032 6.22812 91.3032 6.00224C91.3032 5.77636 91.4148 5.66341 91.6378 5.66341C91.8609 5.66341 91.9725 5.77636 91.9725 6.00224ZM91.9725 7.35753C91.9725 7.58342 91.8609 7.69636 91.6378 7.69636C91.4148 7.69636 91.3032 7.58342 91.3032 7.35753C91.3032 7.13165 91.4148 7.01871 91.6378 7.01871C91.8609 7.01871 91.9725 7.13165 91.9725 7.35753ZM83.8787 0.538711C83.8787 0.764593 83.7672 0.877535 83.5441 0.877535C83.321 0.877535 83.2095 0.764593 83.2095 0.538711C83.2095 0.298711 83.321 0.178711 83.5441 0.178711C83.7672 0.178711 83.8787 0.298711 83.8787 0.538711ZM91.9725 8.734C91.9725 8.95989 91.8609 9.07283 91.6378 9.07283C91.4148 9.07283 91.3032 8.95989 91.3032 8.734C91.3032 8.50812 91.4148 8.39518 91.6378 8.39518C91.8609 8.39518 91.9725 8.50812 91.9725 8.734ZM83.8787 1.89401C83.8787 2.11989 83.7672 2.23283 83.5441 2.23283C83.321 2.23283 83.2095 2.11989 83.2095 1.89401C83.2095 1.66812 83.321 1.55518 83.5441 1.55518C83.7672 1.55518 83.8787 1.66812 83.8787 1.89401ZM91.9725 10.0893C91.9725 10.3152 91.8609 10.4281 91.6378 10.4281C91.4148 10.4281 91.3032 10.3152 91.3032 10.0893C91.3032 9.86342 91.4148 9.75047 91.6378 9.75047C91.8609 9.75047 91.9725 9.86342 91.9725 10.0893ZM83.8787 3.27047C83.8787 3.49636 83.7672 3.6093 83.5441 3.6093C83.321 3.6093 83.2095 3.49636 83.2095 3.27047C83.2095 3.04459 83.321 2.93165 83.5441 2.93165C83.7672 2.93165 83.8787 3.04459 83.8787 3.27047ZM91.9725 11.4658C91.9725 11.6917 91.8609 11.8046 91.6378 11.8046C91.4148 11.8046 91.3032 11.6917 91.3032 11.4658C91.3032 11.2399 91.4148 11.1269 91.6378 11.1269C91.8609 11.1269 91.9725 11.2399 91.9725 11.4658ZM83.8787 4.62577C83.8787 4.85165 83.7672 4.96459 83.5441 4.96459C83.321 4.96459 83.2095 4.85165 83.2095 4.62577C83.2095 4.39989 83.321 4.28694 83.5441 4.28694C83.7672 4.28694 83.8787 4.39989 83.8787 4.62577ZM91.9725 12.8211C91.9725 13.0469 91.8609 13.1599 91.6378 13.1599C91.4148 13.1599 91.3032 13.0469 91.3032 12.8211C91.3032 12.5952 91.4148 12.4822 91.6378 12.4822C91.8609 12.4822 91.9725 12.5952 91.9725 12.8211ZM83.8787 6.00224C83.8787 6.22812 83.7672 6.34106 83.5441 6.34106C83.321 6.34106 83.2095 6.22812 83.2095 6.00224C83.2095 5.77636 83.321 5.66341 83.5441 5.66341C83.7672 5.66341 83.8787 5.77636 83.8787 6.00224ZM83.8787 7.35753C83.8787 7.58342 83.7672 7.69636 83.5441 7.69636C83.321 7.69636 83.2095 7.58342 83.2095 7.35753C83.2095 7.13165 83.321 7.01871 83.5441 7.01871C83.7672 7.01871 83.8787 7.13165 83.8787 7.35753ZM90.634 14.1975C90.634 14.4234 90.5224 14.5364 90.2993 14.5364C90.0763 14.5364 89.9647 14.4234 89.9647 14.1975C89.9647 13.9717 90.0763 13.8587 90.2993 13.8587C90.5224 13.8587 90.634 13.9717 90.634 14.1975ZM83.8787 8.734C83.8787 8.95989 83.7672 9.07283 83.5441 9.07283C83.321 9.07283 83.2095 8.95989 83.2095 8.734C83.2095 8.50812 83.321 8.39518 83.5441 8.39518C83.7672 8.39518 83.8787 8.50812 83.8787 8.734ZM83.8787 10.0893C83.8787 10.3152 83.7672 10.4281 83.5441 10.4281C83.321 10.4281 83.2095 10.3152 83.2095 10.0893C83.2095 9.86342 83.321 9.75047 83.5441 9.75047C83.7672 9.75047 83.8787 9.86342 83.8787 10.0893ZM89.2746 15.5528C89.2746 15.7787 89.163 15.8917 88.9399 15.8917C88.7168 15.8917 88.6053 15.7787 88.6053 15.5528C88.6053 15.3269 88.7168 15.214 88.9399 15.214C89.163 15.214 89.2746 15.3269 89.2746 15.5528ZM87.9361 15.5528C87.9361 15.7787 87.8245 15.8917 87.6014 15.8917C87.3783 15.8917 87.2668 15.7787 87.2668 15.5528C87.2668 15.3269 87.3783 15.214 87.6014 15.214C87.8245 15.214 87.9361 15.3269 87.9361 15.5528ZM83.8787 11.4658C83.8787 11.6917 83.7672 11.8046 83.5441 11.8046C83.321 11.8046 83.2095 11.6917 83.2095 11.4658C83.2095 11.2399 83.321 11.1269 83.5441 11.1269C83.7672 11.1269 83.8787 11.2399 83.8787 11.4658ZM83.8787 12.8211C83.8787 13.0469 83.7672 13.1599 83.5441 13.1599C83.321 13.1599 83.2095 13.0469 83.2095 12.8211C83.2095 12.5952 83.321 12.4822 83.5441 12.4822C83.7672 12.4822 83.8787 12.5952 83.8787 12.8211ZM85.2381 14.1975C85.2381 14.4234 85.1266 14.5364 84.9035 14.5364C84.6804 14.5364 84.5689 14.4234 84.5689 14.1975C84.5689 13.9717 84.6804 13.8587 84.9035 13.8587C85.1266 13.8587 85.2381 13.9717 85.2381 14.1975ZM86.5766 15.5528C86.5766 15.7787 86.4651 15.8917 86.242 15.8917C86.0189 15.8917 85.9074 15.7787 85.9074 15.5528C85.9074 15.3269 86.0189 15.214 86.242 15.214C86.4651 15.214 86.5766 15.3269 86.5766 15.5528Z" fill="white"/>
<path d="M101.459 1.89401C101.459 2.11989 101.347 2.23283 101.124 2.23283C100.901 2.23283 100.789 2.11989 100.789 1.89401C100.789 1.66812 100.901 1.55518 101.124 1.55518C101.347 1.55518 101.459 1.66812 101.459 1.89401ZM100.099 0.538711C100.099 0.764593 99.9877 0.877535 99.7646 0.877535C99.5416 0.877535 99.43 0.764593 99.43 0.538711C99.43 0.298711 99.5416 0.178711 99.7646 0.178711C99.9877 0.178711 100.099 0.298711 100.099 0.538711ZM102.797 3.27047C102.797 3.49636 102.686 3.6093 102.463 3.6093C102.239 3.6093 102.128 3.49636 102.128 3.27047C102.128 3.04459 102.239 2.93165 102.463 2.93165C102.686 2.93165 102.797 3.04459 102.797 3.27047ZM98.7608 0.538711C98.7608 0.764593 98.6492 0.877535 98.4261 0.877535C98.2031 0.877535 98.0915 0.764593 98.0915 0.538711C98.0915 0.298711 98.2031 0.178711 98.4261 0.178711C98.6492 0.178711 98.7608 0.298711 98.7608 0.538711ZM102.797 4.62577C102.797 4.85165 102.686 4.96459 102.463 4.96459C102.239 4.96459 102.128 4.85165 102.128 4.62577C102.128 4.39989 102.239 4.28694 102.463 4.28694C102.686 4.28694 102.797 4.39989 102.797 4.62577ZM97.4013 0.538711C97.4013 0.764593 97.2898 0.877535 97.0667 0.877535C96.8436 0.877535 96.7321 0.764593 96.7321 0.538711C96.7321 0.298711 96.8436 0.178711 97.0667 0.178711C97.2898 0.178711 97.4013 0.298711 97.4013 0.538711ZM102.797 6.00224C102.797 6.22812 102.686 6.34106 102.463 6.34106C102.239 6.34106 102.128 6.22812 102.128 6.00224C102.128 5.77636 102.239 5.66341 102.463 5.66341C102.686 5.66341 102.797 5.77636 102.797 6.00224ZM96.0628 0.538711C96.0628 0.764593 95.9513 0.877535 95.7282 0.877535C95.5051 0.877535 95.3936 0.764593 95.3936 0.538711C95.3936 0.298711 95.5051 0.178711 95.7282 0.178711C95.9513 0.178711 96.0628 0.298711 96.0628 0.538711ZM102.797 7.35753C102.797 7.58342 102.686 7.69636 102.463 7.69636C102.239 7.69636 102.128 7.58342 102.128 7.35753C102.128 7.13165 102.239 7.01871 102.463 7.01871C102.686 7.01871 102.797 7.13165 102.797 7.35753ZM94.7034 0.538711C94.7034 0.764593 94.5919 0.877535 94.3688 0.877535C94.1457 0.877535 94.0342 0.764593 94.0342 0.538711C94.0342 0.298711 94.1457 0.178711 94.3688 0.178711C94.5919 0.178711 94.7034 0.298711 94.7034 0.538711ZM102.797 8.734C102.797 8.95989 102.686 9.07283 102.463 9.07283C102.239 9.07283 102.128 8.95989 102.128 8.734C102.128 8.50812 102.239 8.39518 102.463 8.39518C102.686 8.39518 102.797 8.50812 102.797 8.734ZM94.7034 1.89401C94.7034 2.11989 94.5919 2.23283 94.3688 2.23283C94.1457 2.23283 94.0342 2.11989 94.0342 1.89401C94.0342 1.66812 94.1457 1.55518 94.3688 1.55518C94.5919 1.55518 94.7034 1.66812 94.7034 1.89401ZM102.797 10.0893C102.797 10.3152 102.686 10.4281 102.463 10.4281C102.239 10.4281 102.128 10.3152 102.128 10.0893C102.128 9.86342 102.239 9.75047 102.463 9.75047C102.686 9.75047 102.797 9.86342 102.797 10.0893ZM94.7034 3.27047C94.7034 3.49636 94.5919 3.6093 94.3688 3.6093C94.1457 3.6093 94.0342 3.49636 94.0342 3.27047C94.0342 3.04459 94.1457 2.93165 94.3688 2.93165C94.5919 2.93165 94.7034 3.04459 94.7034 3.27047ZM102.797 11.4658C102.797 11.6917 102.686 11.8046 102.463 11.8046C102.239 11.8046 102.128 11.6917 102.128 11.4658C102.128 11.2399 102.239 11.1269 102.463 11.1269C102.686 11.1269 102.797 11.2399 102.797 11.4658ZM94.7034 4.62577C94.7034 4.85165 94.5919 4.96459 94.3688 4.96459C94.1457 4.96459 94.0342 4.85165 94.0342 4.62577C94.0342 4.39989 94.1457 4.28694 94.3688 4.28694C94.5919 4.28694 94.7034 4.39989 94.7034 4.62577ZM102.797 12.8211C102.797 13.0469 102.686 13.1599 102.463 13.1599C102.239 13.1599 102.128 13.0469 102.128 12.8211C102.128 12.5952 102.239 12.4822 102.463 12.4822C102.686 12.4822 102.797 12.5952 102.797 12.8211ZM94.7034 6.00224C94.7034 6.22812 94.5919 6.34106 94.3688 6.34106C94.1457 6.34106 94.0342 6.22812 94.0342 6.00224C94.0342 5.77636 94.1457 5.66341 94.3688 5.66341C94.5919 5.66341 94.7034 5.77636 94.7034 6.00224ZM94.7034 7.35753C94.7034 7.58342 94.5919 7.69636 94.3688 7.69636C94.1457 7.69636 94.0342 7.58342 94.0342 7.35753C94.0342 7.13165 94.1457 7.01871 94.3688 7.01871C94.5919 7.01871 94.7034 7.13165 94.7034 7.35753ZM101.459 14.1975C101.459 14.4234 101.347 14.5364 101.124 14.5364C100.901 14.5364 100.789 14.4234 100.789 14.1975C100.789 13.9717 100.901 13.8587 101.124 13.8587C101.347 13.8587 101.459 13.9717 101.459 14.1975ZM94.7034 8.734C94.7034 8.95989 94.5919 9.07283 94.3688 9.07283C94.1457 9.07283 94.0342 8.95989 94.0342 8.734C94.0342 8.50812 94.1457 8.39518 94.3688 8.39518C94.5919 8.39518 94.7034 8.50812 94.7034 8.734ZM94.7034 10.0893C94.7034 10.3152 94.5919 10.4281 94.3688 10.4281C94.1457 10.4281 94.0342 10.3152 94.0342 10.0893C94.0342 9.86342 94.1457 9.75047 94.3688 9.75047C94.5919 9.75047 94.7034 9.86342 94.7034 10.0893ZM100.099 15.5528C100.099 15.7787 99.9877 15.8917 99.7646 15.8917C99.5416 15.8917 99.43 15.7787 99.43 15.5528C99.43 15.3269 99.5416 15.214 99.7646 15.214C99.9877 15.214 100.099 15.3269 100.099 15.5528ZM98.7608 15.5528C98.7608 15.7787 98.6492 15.8917 98.4261 15.8917C98.2031 15.8917 98.0915 15.7787 98.0915 15.5528C98.0915 15.3269 98.2031 15.214 98.4261 15.214C98.6492 15.214 98.7608 15.3269 98.7608 15.5528ZM94.7034 11.4658C94.7034 11.6917 94.5919 11.8046 94.3688 11.8046C94.1457 11.8046 94.0342 11.6917 94.0342 11.4658C94.0342 11.2399 94.1457 11.1269 94.3688 11.1269C94.5919 11.1269 94.7034 11.2399 94.7034 11.4658ZM94.7034 12.8211C94.7034 13.0469 94.5919 13.1599 94.3688 13.1599C94.1457 13.1599 94.0342 13.0469 94.0342 12.8211C94.0342 12.5952 94.1457 12.4822 94.3688 12.4822C94.5919 12.4822 94.7034 12.5952 94.7034 12.8211ZM97.4013 15.5528C97.4013 15.7787 97.2898 15.8917 97.0667 15.8917C96.8436 15.8917 96.7321 15.7787 96.7321 15.5528C96.7321 15.3269 96.8436 15.214 97.0667 15.214C97.2898 15.214 97.4013 15.3269 97.4013 15.5528ZM96.0628 15.5528C96.0628 15.7787 95.9513 15.8917 95.7282 15.8917C95.5051 15.8917 95.3936 15.7787 95.3936 15.5528C95.3936 15.3269 95.5051 15.214 95.7282 15.214C95.9513 15.214 96.0628 15.3269 96.0628 15.5528ZM94.7034 14.1975C94.7034 14.4234 94.5919 14.5364 94.3688 14.5364C94.1457 14.5364 94.0342 14.4234 94.0342 14.1975C94.0342 13.9717 94.1457 13.8587 94.3688 13.8587C94.5919 13.8587 94.7034 13.9717 94.7034 14.1975ZM94.7034 15.5528C94.7034 15.7787 94.5919 15.8917 94.3688 15.8917C94.1457 15.8917 94.0342 15.7787 94.0342 15.5528C94.0342 15.3269 94.1457 15.214 94.3688 15.214C94.5919 15.214 94.7034 15.3269 94.7034 15.5528Z" fill="white"/>
<path d="M105.487 0.538711C105.487 0.764593 105.376 0.877535 105.152 0.877535C104.929 0.877535 104.818 0.764593 104.818 0.538711C104.818 0.298711 104.929 0.178711 105.152 0.178711C105.376 0.178711 105.487 0.298711 105.487 0.538711ZM105.487 1.89401C105.487 2.11989 105.376 2.23283 105.152 2.23283C104.929 2.23283 104.818 2.11989 104.818 1.89401C104.818 1.66812 104.929 1.55518 105.152 1.55518C105.376 1.55518 105.487 1.66812 105.487 1.89401ZM105.487 3.27047C105.487 3.49636 105.376 3.6093 105.152 3.6093C104.929 3.6093 104.818 3.49636 104.818 3.27047C104.818 3.04459 104.929 2.93165 105.152 2.93165C105.376 2.93165 105.487 3.04459 105.487 3.27047ZM105.487 4.62577C105.487 4.85165 105.376 4.96459 105.152 4.96459C104.929 4.96459 104.818 4.85165 104.818 4.62577C104.818 4.39989 104.929 4.28694 105.152 4.28694C105.376 4.28694 105.487 4.39989 105.487 4.62577ZM105.487 6.00224C105.487 6.22812 105.376 6.34106 105.152 6.34106C104.929 6.34106 104.818 6.22812 104.818 6.00224C104.818 5.77636 104.929 5.66341 105.152 5.66341C105.376 5.66341 105.487 5.77636 105.487 6.00224ZM105.487 7.35753C105.487 7.58342 105.376 7.69636 105.152 7.69636C104.929 7.69636 104.818 7.58342 104.818 7.35753C104.818 7.13165 104.929 7.01871 105.152 7.01871C105.376 7.01871 105.487 7.13165 105.487 7.35753ZM105.487 8.734C105.487 8.95989 105.376 9.07283 105.152 9.07283C104.929 9.07283 104.818 8.95989 104.818 8.734C104.818 8.50812 104.929 8.39518 105.152 8.39518C105.376 8.39518 105.487 8.50812 105.487 8.734ZM105.487 10.0893C105.487 10.3152 105.376 10.4281 105.152 10.4281C104.929 10.4281 104.818 10.3152 104.818 10.0893C104.818 9.86342 104.929 9.75047 105.152 9.75047C105.376 9.75047 105.487 9.86342 105.487 10.0893ZM105.487 11.4658C105.487 11.6917 105.376 11.8046 105.152 11.8046C104.929 11.8046 104.818 11.6917 104.818 11.4658C104.818 11.2399 104.929 11.1269 105.152 11.1269C105.376 11.1269 105.487 11.2399 105.487 11.4658ZM105.487 12.8211C105.487 13.0469 105.376 13.1599 105.152 13.1599C104.929 13.1599 104.818 13.0469 104.818 12.8211C104.818 12.5952 104.929 12.4822 105.152 12.4822C105.376 12.4822 105.487 12.5952 105.487 12.8211ZM105.487 14.1975C105.487 14.4234 105.376 14.5364 105.152 14.5364C104.929 14.5364 104.818 14.4234 104.818 14.1975C104.818 13.9717 104.929 13.8587 105.152 13.8587C105.376 13.8587 105.487 13.9717 105.487 14.1975ZM105.487 15.5528C105.487 15.7787 105.376 15.8917 105.152 15.8917C104.929 15.8917 104.818 15.7787 104.818 15.5528C104.818 15.3269 104.929 15.214 105.152 15.214C105.376 15.214 105.487 15.3269 105.487 15.5528Z" fill="white"/>
<path d="M115.022 1.91482C115.022 2.1407 114.904 2.25364 114.667 2.25364C114.444 2.25364 114.332 2.1407 114.332 1.91482C114.332 1.68894 114.444 1.576 114.667 1.576C114.904 1.576 115.022 1.68894 115.022 1.91482ZM116.361 3.29129C116.361 3.51717 116.249 3.63011 116.026 3.63011C115.803 3.63011 115.692 3.51717 115.692 3.29129C115.692 3.06541 115.803 2.95246 116.026 2.95246C116.249 2.95246 116.361 3.06541 116.361 3.29129ZM113.663 0.559526C113.663 0.785408 113.551 0.898349 113.328 0.898349C113.105 0.898349 112.994 0.785408 112.994 0.559526C112.994 0.333644 113.105 0.220703 113.328 0.220703C113.551 0.220703 113.663 0.333644 113.663 0.559526ZM116.361 4.64658C116.361 4.87246 116.249 4.98541 116.026 4.98541C115.803 4.98541 115.692 4.87246 115.692 4.64658C115.692 4.4207 115.803 4.30776 116.026 4.30776C116.249 4.30776 116.361 4.4207 116.361 4.64658ZM112.324 0.559526C112.324 0.785408 112.206 0.898349 111.969 0.898349C111.746 0.898349 111.634 0.785408 111.634 0.559526C111.634 0.333644 111.746 0.220703 111.969 0.220703C112.206 0.220703 112.324 0.333644 112.324 0.559526ZM110.965 0.559526C110.965 0.785408 110.853 0.898349 110.63 0.898349C110.407 0.898349 110.296 0.785408 110.296 0.559526C110.296 0.333644 110.407 0.220703 110.63 0.220703C110.853 0.220703 110.965 0.333644 110.965 0.559526ZM116.361 6.02305C116.361 6.24894 116.249 6.36188 116.026 6.36188C115.803 6.36188 115.692 6.24894 115.692 6.02305C115.692 5.79717 115.803 5.68423 116.026 5.68423C116.249 5.68423 116.361 5.79717 116.361 6.02305ZM116.277 7.35717C116.277 7.58305 116.166 7.69599 115.943 7.69599C115.719 7.69599 115.608 7.58305 115.608 7.35717C115.608 7.13129 115.719 7.01835 115.943 7.01835C116.166 7.01835 116.277 7.13129 116.277 7.35717ZM109.626 1.91482C109.626 2.1407 109.508 2.25364 109.271 2.25364C109.048 2.25364 108.936 2.1407 108.936 1.91482C108.936 1.68894 109.048 1.576 109.271 1.576C109.508 1.576 109.626 1.68894 109.626 1.91482ZM116.277 8.73364C116.277 8.95952 116.166 9.07246 115.943 9.07246C115.719 9.07246 115.608 8.95952 115.608 8.73364C115.608 8.50776 115.719 8.39482 115.943 8.39482C116.166 8.39482 116.277 8.50776 116.277 8.73364ZM116.277 10.0889C116.277 10.3148 116.166 10.4278 115.943 10.4278C115.719 10.4278 115.608 10.3148 115.608 10.0889C115.608 9.86305 115.719 9.75011 115.943 9.75011C116.166 9.75011 116.277 9.86305 116.277 10.0889ZM108.267 3.29129C108.267 3.51717 108.156 3.63011 107.932 3.63011C107.709 3.63011 107.598 3.51717 107.598 3.29129C107.598 3.06541 107.709 2.95246 107.932 2.95246C108.156 2.95246 108.267 3.06541 108.267 3.29129ZM116.277 11.4654C116.277 11.6913 116.166 11.8042 115.943 11.8042C115.719 11.8042 115.608 11.6913 115.608 11.4654C115.608 11.2395 115.719 11.1266 115.943 11.1266C116.166 11.1266 116.277 11.2395 116.277 11.4654ZM108.267 4.64658C108.267 4.87246 108.156 4.98541 107.932 4.98541C107.709 4.98541 107.598 4.87246 107.598 4.64658C107.598 4.4207 107.709 4.30776 107.932 4.30776C108.156 4.30776 108.267 4.4207 108.267 4.64658ZM116.277 12.8207C116.277 13.0466 116.166 13.1595 115.943 13.1595C115.719 13.1595 115.608 13.0466 115.608 12.8207C115.608 12.5948 115.719 12.4819 115.943 12.4819C116.166 12.4819 116.277 12.5948 116.277 12.8207ZM108.267 6.02305C108.267 6.24894 108.156 6.36188 107.932 6.36188C107.709 6.36188 107.598 6.24894 107.598 6.02305C107.598 5.79717 107.709 5.68423 107.932 5.68423C108.156 5.68423 108.267 5.79717 108.267 6.02305ZM108.183 7.35717C108.183 7.58305 108.072 7.69599 107.849 7.69599C107.626 7.69599 107.514 7.58305 107.514 7.35717C107.514 7.13129 107.626 7.01835 107.849 7.01835C108.072 7.01835 108.183 7.13129 108.183 7.35717ZM114.939 14.1972C114.939 14.4231 114.827 14.536 114.604 14.536C114.381 14.536 114.269 14.4231 114.269 14.1972C114.269 13.9713 114.381 13.8583 114.604 13.8583C114.827 13.8583 114.939 13.9713 114.939 14.1972ZM108.183 8.73364C108.183 8.95952 108.072 9.07246 107.849 9.07246C107.626 9.07246 107.514 8.95952 107.514 8.73364C107.514 8.50776 107.626 8.39482 107.849 8.39482C108.072 8.39482 108.183 8.50776 108.183 8.73364ZM108.183 10.0889C108.183 10.3148 108.072 10.4278 107.849 10.4278C107.626 10.4278 107.514 10.3148 107.514 10.0889C107.514 9.86305 107.626 9.75011 107.849 9.75011C108.072 9.75011 108.183 9.86305 108.183 10.0889ZM113.579 15.5525C113.579 15.7783 113.468 15.8913 113.245 15.8913C113.022 15.8913 112.91 15.7783 112.91 15.5525C112.91 15.3266 113.022 15.2136 113.245 15.2136C113.468 15.2136 113.579 15.3266 113.579 15.5525ZM112.241 15.5525C112.241 15.7783 112.129 15.8913 111.906 15.8913C111.683 15.8913 111.571 15.7783 111.571 15.5525C111.571 15.3266 111.683 15.2136 111.906 15.2136C112.129 15.2136 112.241 15.3266 112.241 15.5525ZM108.183 11.4654C108.183 11.6913 108.072 11.8042 107.849 11.8042C107.626 11.8042 107.514 11.6913 107.514 11.4654C107.514 11.2395 107.626 11.1266 107.849 11.1266C108.072 11.1266 108.183 11.2395 108.183 11.4654ZM108.183 12.8207C108.183 13.0466 108.072 13.1595 107.849 13.1595C107.626 13.1595 107.514 13.0466 107.514 12.8207C107.514 12.5948 107.626 12.4819 107.849 12.4819C108.072 12.4819 108.183 12.5948 108.183 12.8207ZM109.543 14.1972C109.543 14.4231 109.431 14.536 109.208 14.536C108.985 14.536 108.874 14.4231 108.874 14.1972C108.874 13.9713 108.985 13.8583 109.208 13.8583C109.431 13.8583 109.543 13.9713 109.543 14.1972ZM110.881 15.5525C110.881 15.7783 110.77 15.8913 110.547 15.8913C110.324 15.8913 110.212 15.7783 110.212 15.5525C110.212 15.3266 110.324 15.2136 110.547 15.2136C110.77 15.2136 110.881 15.3266 110.881 15.5525Z" fill="white"/>
<path d="M124.363 0.539018C124.363 0.7649 124.251 0.877841 124.028 0.877841C123.805 0.877841 123.694 0.7649 123.694 0.539018C123.694 0.313136 123.805 0.200195 124.028 0.200195C124.251 0.200195 124.363 0.313136 124.363 0.539018ZM127.061 3.27078C127.061 3.49666 126.949 3.6096 126.726 3.6096C126.503 3.6096 126.392 3.49666 126.392 3.27078C126.392 3.0449 126.503 2.93196 126.726 2.93196C126.949 2.93196 127.061 3.0449 127.061 3.27078ZM125.722 1.91549C125.722 2.14137 125.611 2.25431 125.388 2.25431C125.151 2.25431 125.032 2.14137 125.032 1.91549C125.032 1.68961 125.151 1.57666 125.388 1.57666C125.611 1.57666 125.722 1.68961 125.722 1.91549ZM123.024 0.539018C123.024 0.7649 122.906 0.877841 122.669 0.877841C122.446 0.877841 122.334 0.7649 122.334 0.539018C122.334 0.313136 122.446 0.200195 122.669 0.200195C122.906 0.200195 123.024 0.313136 123.024 0.539018ZM121.665 0.539018C121.665 0.7649 121.553 0.877841 121.33 0.877841C121.107 0.877841 120.996 0.7649 120.996 0.539018C120.996 0.313136 121.107 0.200195 121.33 0.200195C121.553 0.200195 121.665 0.313136 121.665 0.539018ZM120.327 1.91549C120.327 2.14137 120.208 2.25431 119.971 2.25431C119.748 2.25431 119.636 2.14137 119.636 1.91549C119.636 1.68961 119.748 1.57666 119.971 1.57666C120.208 1.57666 120.327 1.68961 120.327 1.91549ZM127.061 10.1108C127.061 10.3367 126.949 10.4496 126.726 10.4496C126.503 10.4496 126.392 10.3367 126.392 10.1108C126.392 9.8849 126.503 9.77196 126.726 9.77196C126.949 9.77196 127.061 9.8849 127.061 10.1108ZM124.363 7.37902C124.363 7.6049 124.251 7.71784 124.028 7.71784C123.805 7.71784 123.694 7.6049 123.694 7.37902C123.694 7.15313 123.805 7.04019 124.028 7.04019C124.251 7.04019 124.363 7.15313 124.363 7.37902ZM125.722 8.73431C125.722 8.97431 125.611 9.09431 125.388 9.09431C125.151 9.09431 125.032 8.97431 125.032 8.73431C125.032 8.50843 125.151 8.39549 125.388 8.39549C125.611 8.39549 125.722 8.50843 125.722 8.73431ZM118.967 3.27078C118.967 3.49666 118.856 3.6096 118.632 3.6096C118.409 3.6096 118.298 3.49666 118.298 3.27078C118.298 3.0449 118.409 2.93196 118.632 2.93196C118.856 2.93196 118.967 3.0449 118.967 3.27078ZM123.024 7.37902C123.024 7.6049 122.906 7.71784 122.669 7.71784C122.446 7.71784 122.334 7.6049 122.334 7.37902C122.334 7.15313 122.446 7.04019 122.669 7.04019C122.906 7.04019 123.024 7.15313 123.024 7.37902ZM127.061 11.4661C127.061 11.7061 126.949 11.8261 126.726 11.8261C126.503 11.8261 126.392 11.7061 126.392 11.4661C126.392 11.2402 126.503 11.1273 126.726 11.1273C126.949 11.1273 127.061 11.2402 127.061 11.4661ZM127.061 12.8214C127.061 13.0473 126.949 13.1602 126.726 13.1602C126.503 13.1602 126.392 13.0473 126.392 12.8214C126.392 12.5955 126.503 12.4825 126.726 12.4825C126.949 12.4825 127.061 12.5955 127.061 12.8214ZM120.327 6.00255C120.327 6.22843 120.208 6.34137 119.971 6.34137C119.748 6.34137 119.636 6.22843 119.636 6.00255C119.636 5.77666 119.748 5.66372 119.971 5.66372C120.208 5.66372 120.327 5.77666 120.327 6.00255ZM118.967 4.64725C118.967 4.87313 118.856 4.98607 118.632 4.98607C118.409 4.98607 118.298 4.87313 118.298 4.64725C118.298 4.42137 118.409 4.30843 118.632 4.30843C118.856 4.30843 118.967 4.42137 118.967 4.64725ZM121.665 7.37902C121.665 7.6049 121.553 7.71784 121.33 7.71784C121.107 7.71784 120.996 7.6049 120.996 7.37902C120.996 7.15313 121.107 7.04019 121.33 7.04019C121.553 7.04019 121.665 7.15313 121.665 7.37902ZM125.722 14.1978C125.722 14.4237 125.611 14.5367 125.388 14.5367C125.165 14.5367 125.053 14.4237 125.053 14.1978C125.053 13.972 125.165 13.859 125.388 13.859C125.611 13.859 125.722 13.972 125.722 14.1978ZM124.363 15.5531C124.363 15.779 124.251 15.892 124.028 15.892C123.805 15.892 123.694 15.779 123.694 15.5531C123.694 15.3273 123.805 15.2143 124.028 15.2143C124.251 15.2143 124.363 15.3273 124.363 15.5531ZM123.024 15.5531C123.024 15.779 122.913 15.892 122.69 15.892C122.467 15.892 122.355 15.779 122.355 15.5531C122.355 15.3273 122.467 15.2143 122.69 15.2143C122.913 15.2143 123.024 15.3273 123.024 15.5531ZM118.967 12.8214C118.967 13.0473 118.856 13.1602 118.632 13.1602C118.409 13.1602 118.298 13.0473 118.298 12.8214C118.298 12.5955 118.409 12.4825 118.632 12.4825C118.856 12.4825 118.967 12.5955 118.967 12.8214ZM120.327 14.1978C120.327 14.4237 120.215 14.5367 119.992 14.5367C119.769 14.5367 119.657 14.4237 119.657 14.1978C119.657 13.972 119.769 13.859 119.992 13.859C120.215 13.859 120.327 13.972 120.327 14.1978ZM121.665 15.5531C121.665 15.779 121.553 15.892 121.33 15.892C121.107 15.892 120.996 15.779 120.996 15.5531C120.996 15.3273 121.107 15.2143 121.33 15.2143C121.553 15.2143 121.665 15.3273 121.665 15.5531Z" fill="white"/>
</g>
<defs>
<clipPath id="clip0_304_987">
<rect width="127.111" height="16" fill="white"/>
</clipPath>
</defs>
</svg>
